<svg width="21" height="22" viewBox="0 0 21 22" fill="none" xmlns="http://www.w3.org/2000/svg">
<path d="M11.7484 20.2117C11.5687 20.5221 11.3105 20.7798 10.9998 20.959C10.689 21.1382 10.3366 21.2325 9.97793 21.2325C9.61924 21.2325 9.26686 21.1382 8.95612 20.959C8.64538 20.7798 8.3872 20.5221 8.20749 20.2117M16.2553 9.97793C16.8499 15.4786 19.1883 17.1416 19.1883 17.1416H0.767533C0.767533 17.1416 3.83767 14.9587 3.83767 7.31715C3.83767 5.58048 4.48444 3.91442 5.63574 2.68637C6.78807 1.45831 8.35076 0.767533 9.97793 0.767533C10.3228 0.767533 10.6656 0.798235 11.0013 0.859637L16.2553 9.97793ZM17.1416 6.9078C17.9558 6.9078 18.7367 6.58434 19.3125 6.00858C19.8883 5.43282 20.2117 4.65192 20.2117 3.83767C20.2117 3.02342 19.8883 2.24252 19.3125 1.66675C18.7367 1.09099 17.9558 0.767533 17.1416 0.767533C16.3273 0.767533 15.5464 1.09099 14.9707 1.66675C14.3949 2.24252 14.0714 3.02342 14.0714 3.83767C14.0714 4.65192 14.3949 5.43282 14.9707 6.00858C15.5464 6.58434 16.3273 6.9078 17.1416 6.9078Z" stroke="#282828" stroke-width="1.5" stroke-linecap="round" stroke-linejoin="round"/>
</svg>
