<svg width="16" height="16" viewBox="0 0 16 16" fill="none" xmlns="http://www.w3.org/2000/svg">
<path d="M11.7425 10.3418C12.7108 9.02056 13.1445 7.38241 12.9568 5.75512C12.7691 4.12783 11.9739 2.63141 10.7303 1.56523C9.48672 0.499053 7.88641 -0.0582473 6.24954 0.00482394C4.61268 0.0678952 3.05999 0.746687 1.90211 1.9054C0.744227 3.06411 0.0665463 4.61728 0.00464639 6.25419C-0.0572535 7.8911 0.501192 9.49102 1.56826 10.7339C2.63532 11.9767 4.13232 12.7708 5.75974 12.9573C7.38717 13.1438 9.025 12.709 10.3456 11.7398H10.3446C10.3746 11.7798 10.4066 11.8178 10.4426 11.8548L14.2925 15.7047C14.48 15.8923 14.7343 15.9978 14.9996 15.9979C15.2648 15.998 15.5193 15.8927 15.7069 15.7052C15.8946 15.5177 16 15.2633 16.0001 14.998C16.0002 14.7328 15.8949 14.4783 15.7074 14.2907L11.8575 10.4408C11.8218 10.4046 11.7833 10.3712 11.7425 10.3408V10.3418ZM12.0005 6.49795C12.0005 7.2202 11.8583 7.93537 11.5819 8.60264C11.3055 9.26991 10.9004 9.87621 10.3897 10.3869C9.87896 10.8976 9.27266 11.3027 8.60539 11.5791C7.93812 11.8555 7.22295 11.9978 6.5007 11.9978C5.77845 11.9978 5.06328 11.8555 4.396 11.5791C3.72873 11.3027 3.12244 10.8976 2.61173 10.3869C2.10102 9.87621 1.69591 9.26991 1.41952 8.60264C1.14312 7.93537 1.00087 7.2202 1.00087 6.49795C1.00087 5.0393 1.58031 3.6404 2.61173 2.60898C3.64315 1.57756 5.04205 0.998117 6.5007 0.998117C7.95935 0.998117 9.35825 1.57756 10.3897 2.60898C11.4211 3.6404 12.0005 5.0393 12.0005 6.49795Z" fill="#8A8A8A"/>
</svg>
