<svg width="16" height="16" viewBox="0 0 16 16" fill="none" xmlns="http://www.w3.org/2000/svg">
<path d="M14.0002 7.83336H2.00016C1.36016 7.83336 0.833496 7.3067 0.833496 6.6667V4.45336C0.833496 4.00002 1.14681 3.54003 1.56681 3.37336L7.56681 0.973376C7.82015 0.873376 8.18018 0.873376 8.43351 0.973376L14.4335 3.37336C14.8535 3.54003 15.1668 4.00669 15.1668 4.45336V6.6667C15.1668 7.3067 14.6402 7.83336 14.0002 7.83336ZM8.00016 1.89338C7.9735 1.89338 7.94685 1.89335 7.93351 1.90001L1.94014 4.30004C1.90014 4.32004 1.8335 4.40669 1.8335 4.45336V6.6667C1.8335 6.76003 1.90683 6.83336 2.00016 6.83336H14.0002C14.0935 6.83336 14.1668 6.76003 14.1668 6.6667V4.45336C14.1668 4.40669 14.1068 4.32004 14.0602 4.30004L8.06018 1.90001C8.04685 1.89335 8.02683 1.89338 8.00016 1.89338Z" fill="white"/>
<path d="M14.6668 15.1667H1.3335C1.06016 15.1667 0.833496 14.94 0.833496 14.6667V12.6667C0.833496 12.0267 1.36016 11.5 2.00016 11.5H14.0002C14.6402 11.5 15.1668 12.0267 15.1668 12.6667V14.6667C15.1668 14.94 14.9402 15.1667 14.6668 15.1667ZM1.8335 14.1667H14.1668V12.6667C14.1668 12.5733 14.0935 12.5 14.0002 12.5H2.00016C1.90683 12.5 1.8335 12.5733 1.8335 12.6667V14.1667Z" fill="white"/>
<path d="M2.6665 12.5C2.39317 12.5 2.1665 12.2733 2.1665 12V7.33331C2.1665 7.05998 2.39317 6.83331 2.6665 6.83331C2.93984 6.83331 3.1665 7.05998 3.1665 7.33331V12C3.1665 12.2733 2.93984 12.5 2.6665 12.5Z" fill="white"/>
<path d="M5.3335 12.5C5.06016 12.5 4.8335 12.2733 4.8335 12V7.33331C4.8335 7.05998 5.06016 6.83331 5.3335 6.83331C5.60683 6.83331 5.8335 7.05998 5.8335 7.33331V12C5.8335 12.2733 5.60683 12.5 5.3335 12.5Z" fill="white"/>
<path d="M8 12.5C7.72667 12.5 7.5 12.2733 7.5 12V7.33331C7.5 7.05998 7.72667 6.83331 8 6.83331C8.27333 6.83331 8.5 7.05998 8.5 7.33331V12C8.5 12.2733 8.27333 12.5 8 12.5Z" fill="white"/>
<path d="M10.6665 12.5C10.3932 12.5 10.1665 12.2733 10.1665 12V7.33331C10.1665 7.05998 10.3932 6.83331 10.6665 6.83331C10.9398 6.83331 11.1665 7.05998 11.1665 7.33331V12C11.1665 12.2733 10.9398 12.5 10.6665 12.5Z" fill="white"/>
<path d="M13.3335 12.5C13.0602 12.5 12.8335 12.2733 12.8335 12V7.33331C12.8335 7.05998 13.0602 6.83331 13.3335 6.83331C13.6068 6.83331 13.8335 7.05998 13.8335 7.33331V12C13.8335 12.2733 13.6068 12.5 13.3335 12.5Z" fill="white"/>
<path d="M15.3332 15.1667H0.666504C0.393171 15.1667 0.166504 14.94 0.166504 14.6667C0.166504 14.3934 0.393171 14.1667 0.666504 14.1667H15.3332C15.6065 14.1667 15.8332 14.3934 15.8332 14.6667C15.8332 14.94 15.6065 15.1667 15.3332 15.1667Z" fill="white"/>
<path d="M8 6.16669C7.17333 6.16669 6.5 5.49335 6.5 4.66669C6.5 3.84002 7.17333 3.16669 8 3.16669C8.82667 3.16669 9.5 3.84002 9.5 4.66669C9.5 5.49335 8.82667 6.16669 8 6.16669ZM8 4.16669C7.72667 4.16669 7.5 4.39335 7.5 4.66669C7.5 4.94002 7.72667 5.16669 8 5.16669C8.27333 5.16669 8.5 4.94002 8.5 4.66669C8.5 4.39335 8.27333 4.16669 8 4.16669Z" fill="white"/>
</svg>
